<?xml version="1.0" encoding="utf-8"?>
<!-- Generator: Adobe Illustrator 22.1.0, SVG Export Plug-In . SVG Version: 6.00 Build 0)  -->
<svg version="1.1" id="Layer_1" xmlns="http://www.w3.org/2000/svg" xmlns:xlink="http://www.w3.org/1999/xlink" x="0px" y="0px"
	 viewBox="0 0 303.1 505" style="enable-background:new 0 0 303.1 505;" xml:space="preserve">
<style type="text/css">
	.st0{fill:#404041;}
	.st1{display:none;fill:#FFFFFF;}
	.st2{fill:#FFFFFF;}
	.st3{fill:#808285;}
</style>
<path class="st0" d="M207.5,69.6L207.5,69.6c0,0-0.1-0.1-0.2-0.1h-0.1c-0.1,0-0.1,0-0.2-0.1h-0.1c-0.1,0-0.1,0-0.2-0.1h-0.1
	c-0.1,0-0.1,0-0.2-0.1c-0.1,0-0.1,0-0.2,0c-0.1,0-0.2,0-0.3-0.1c-0.1,0-0.1,0-0.2,0c-0.1,0-0.2,0-0.3-0.1c-0.1,0-0.1,0-0.2,0
	c-0.1,0-0.2,0-0.4-0.1c-0.1,0-0.1,0-0.2,0c-0.2,0-0.4-0.1-0.6-0.1l0,0c-0.2,0-0.4-0.1-0.6-0.1l0,0c-0.2,0-0.5-0.1-0.7-0.1l0,0l0,0
	c-1.8-0.2-4-0.4-6.4-0.5l0,0l0,0c-0.6,0-1.3-0.1-2-0.1l0,0l0,0c-1.7-0.1-3.4-0.2-5.2-0.3l0,0l0,0c-0.7,0-1.5-0.1-2.2-0.1l0,0l0,0
	c-4.4-0.2-9.1-0.3-13.6-0.4l0,0l0,0c-4.3-0.1-8.3-0.1-11.7-0.2c-0.1,0-0.3,0-0.4,0c-0.4,0-0.9,0-1.3,0c-0.1,0-0.1,0-0.2,0
	c-0.4,0-0.8,0-1.2,0c-0.1,0-0.1,0-0.2,0c-0.8,0-1.5,0-2.1,0c-0.1,0-0.2,0-0.3,0c-0.3,0-0.6,0-0.9,0h-0.1c-0.3,0-0.6,0-0.8,0
	c0,0,0,0-0.1,0c-0.3,0-0.5,0-0.7,0l0,0c-0.2,0-0.5,0-0.7,0c0,0,0,0-0.1,0c-0.3,0-0.5,0-0.8,0h-0.1c-0.3,0-0.6,0-0.9,0
	c-0.1,0-0.2,0-0.3,0c-0.7,0-1.4,0-2.1,0c-0.1,0-0.1,0-0.2,0c-0.4,0-0.8,0-1.2,0c-0.1,0-0.1,0-0.2,0c-0.4,0-0.8,0-1.3,0
	c-0.1,0-0.3,0-0.4,0c-3.4,0-7.4,0.1-11.7,0.2l0,0l0,0c-4.5,0.1-9.1,0.2-13.6,0.4l0,0l0,0c-0.7,0-1.5,0.1-2.2,0.1l0,0l0,0
	c-1.8,0.1-3.6,0.2-5.2,0.3l0,0l0,0c-0.7,0-1.3,0.1-2,0.1l0,0l0,0c-2.5,0.2-4.6,0.3-6.4,0.5l0,0l0,0c-0.2,0-0.5,0.1-0.7,0.1l0,0
	c-0.2,0-0.4,0.1-0.6,0.1l0,0c-0.2,0-0.4,0.1-0.6,0.1c-0.1,0-0.1,0-0.2,0s-0.3,0-0.4,0.1c-0.1,0-0.1,0-0.2,0s-0.2,0-0.3,0.1
	c-0.1,0-0.1,0-0.2,0s-0.2,0-0.3,0.1c-0.1,0-0.1,0-0.2,0s-0.2,0-0.2,0.1h-0.1c-0.1,0-0.1,0-0.2,0.1h-0.1c-0.1,0-0.1,0-0.2,0.1h-0.1
	c-0.1,0-0.1,0.1-0.2,0.1l0,0c-3,2.4-5.1,5.2-6.5,8.4c-0.4,0.9-0.7,1.9-1,2.8c-0.3,1-0.5,2-0.7,3c-0.5,2.6-0.7,5.5-0.7,8.5l0,0l0,0
	c0,0.2,0,0.4,0,0.7c0,0.1,0,0.2,0,0.3c0,0.2,0,0.4,0,0.6c0,0.1,0,0.2,0,0.3c0,0.2,0,0.4,0,0.6c0,0.1,0,0.2,0,0.3v0.1v0.1
	c0,0.1,0,0.2,0,0.3c0,0.1,0,0.3,0,0.4s0,0.2,0,0.4c0,0.1,0,0.1,0,0.2c0,0.5,0.1,1,0.1,1.5v0.1c0,0.3,0.1,0.6,0.1,0.9
	c0,0.1,0,0.1,0,0.2c0,0.2,0,0.5,0.1,0.7c0,0.1,0,0.2,0,0.4c0,0.1,0,0.2,0,0.3c0,0.1,0,0.2,0,0.3c0,0.1,0,0.2,0,0.3
	c0,0.1,0,0.2,0,0.3c0,0.1,0,0.1,0,0.2c0,0.2,0,0.3,0,0.4c0,0.3,0,0.7,0,1.1c0,0.1,0,0.3,0,0.4c0,0.3,0,0.6,0,0.9c0,0.1,0,0.3,0,0.4
	c0,0.3,0,0.7,0,1c0,0.2,0,0.3,0,0.5c0,0.3,0,0.7,0,1c0,0.2,0,0.4,0,0.7c0,0.3,0,0.7,0,1.1c0,0.2,0,0.4,0,0.7c0,0.5,0,1,0,1.6
	c0,0.1,0,0.2,0,0.2c0,1.3,0,2.8,0,4.3c0,0.1,0,0.2,0,0.3c0,0.7,0,1.4,0,2.1c0,0.1,0,0.3,0,0.4c0,0.6,0,1.3,0,2c0,0.2,0,0.5,0,0.7
	c0,0.6,0,1.2,0,1.8c0,0.2,0,0.5,0,0.7c0,0.8,0,1.6,0,2.4v0.1c0,3.7,0,7.7,0,12l0,0c0,1,0,2.1,0,3.2v0.1c0,1,0,2,0,3
	c0,0.1,0,0.3,0,0.4c0,5.5,0,11.3,0,17.3c0,0,0,0,0,0.1c0,6,0,12.2,0,18.5c0,1.4,0,2.9,0,4.3c0,0.7,0,1.3,0,2s0,1.5,0,2.2
	c0,0.9,0,1.7,0,2.6c0,0.5,0,1,0,1.4c0,1.1,0,2.2,0,3.3s0,2.3,0,3.4c0,0.7,0,1.3,0,2s0,1.4,0,2.1c0,0.9,0,1.7,0,2.6
	c0,0.4,0,0.8,0,1.2c0,1.4,0,2.7,0,4.1c0,0.9,0,1.8,0,2.7c0,0.5,0,0.9,0,1.4c0,1,0,1.9,0,2.9c0,0.6,0,1.2,0,1.7c0,0.9,0,1.8,0,2.7
	c0,0.5,0,1,0,1.5c0,1.3,0,2.7,0,4c0,0.3,0,0.6,0,0.9c0,1,0,1.9,0,2.9c0,0.6,0,1.3,0,1.9c0,0.7,0,1.3,0,2c0,0.6,0,1.2,0,1.8
	c0,1.2,0,2.4,0,3.6c0,0.1,0,0.2,0,0.4c0,1.1,0,2.2,0,3.3c0,0.4,0,0.7,0,1.1c0,0.9,0,1.7,0,2.6c0,0.3,0,0.7,0,1c0,1.1,0,2.3,0,3.4
	c0,0.9,0,1.8,0,2.7s0,1.8,0,2.7c0,0.3,0,0.6,0,1c0,0.6,0,1.1,0,1.6c0,0.3,0,0.7,0,1c0,0.5,0,1.1,0,1.6c0,0.3,0,0.5,0,0.8
	c0,0.5,0,1.1,0,1.6c0,0.3,0,0.6,0,0.8c0,0.5,0,0.9,0,1.3c0,0.2,0,0.5,0,0.7c0,0.5,0,0.9,0,1.3c0,0.2,0,0.4,0,0.7c0,0.4,0,0.8,0,1.1
	c0,0.2,0,0.4,0,0.6c0,0.5,0,1.1,0,1.5c0,0.9,0,1.7,0,2.4c0,0.3,0,0.6,0,0.9s0,0.5,0,0.7s0,0.4,0,0.6c0,0.9,0,1.8,0,2.8
	c0,0.1,0,0.2,0,0.3c0,0.8,0,1.7-0.1,2.6l0,0c0,1.4-0.1,2.7-0.1,4.1v0.1c0,0.1,0,0.1,0,0.2c0,0.2,0,0.3,0,0.5c0,0.3,0,0.5,0,0.8
	c0,0.2,0,0.3,0,0.5c0,0.3,0,0.5,0,0.8c0,0.2,0,0.3,0,0.5c0,0.3,0,0.6,0,0.8c0,0.1,0,0.3,0,0.4c0,0.4,0.1,0.7,0.1,1.1
	c0,0.1,0,0.1,0,0.2c0,0.4,0.1,0.9,0.1,1.3c0,0.1,0,0.2,0,0.4c0,0.3,0.1,0.6,0.1,1c0,0.2,0,0.3,0.1,0.5c0,0.3,0.1,0.6,0.1,0.9
	c0,0.2,0.1,0.4,0.1,0.5c0.1,0.3,0.1,0.6,0.2,0.9c0,0.2,0.1,0.4,0.1,0.5c0.1,0.3,0.1,0.6,0.2,0.9c0,0.2,0.1,0.3,0.1,0.5
	c0.1,0.4,0.2,0.7,0.3,1.1c0,0.1,0.1,0.2,0.1,0.3c0.1,0.5,0.3,1,0.4,1.5c0,0.1,0.1,0.2,0.1,0.3c0.1,0.4,0.3,0.8,0.4,1.2
	c0.1,0.2,0.1,0.4,0.2,0.5c0.1,0.3,0.2,0.7,0.4,1c0.1,0.2,0.2,0.4,0.2,0.6c0.1,0.3,0.3,0.7,0.4,1c0.1,0.2,0.2,0.4,0.3,0.6
	c0.1,0.3,0.3,0.7,0.5,1c0.1,0.2,0.2,0.4,0.3,0.6c0.2,0.4,0.4,0.8,0.6,1.2c0.1,0.2,0.2,0.3,0.2,0.5c0.3,0.6,0.6,1.1,0.9,1.7
	c0,0.1,0.1,0.2,0.1,0.2c0.3,0.5,0.6,1,0.8,1.5c0.1,0.2,0.2,0.4,0.4,0.6c0.2,0.4,0.5,0.8,0.7,1.2c0.1,0.2,0.3,0.5,0.4,0.7
	c0.2,0.4,0.5,0.8,0.7,1.2c0.2,0.2,0.3,0.5,0.5,0.7c0.3,0.4,0.5,0.8,0.8,1.2c0.2,0.2,0.3,0.5,0.5,0.7c0.3,0.4,0.6,0.9,1,1.3
	c0.1,0.2,0.3,0.4,0.4,0.6c1,1.3,2,2.7,3.1,4.1l0.1,0.1c0.2,0.3,0.5,0.6,0.7,0.9s0.5,0.6,0.7,0.9c0.3,0.4,0.6,0.7,0.9,1.1
	c0.2,0.3,0.5,0.6,0.7,0.8c0.4,0.4,0.7,0.8,1.1,1.3c0.2,0.2,0.4,0.5,0.7,0.7c0.5,0.6,1.1,1.2,1.7,1.8c0.1,0.1,0.1,0.1,0.2,0.2
	c0.3,0.3,0.6,0.6,0.8,0.8c0.4,0.4,0.7,0.7,1.1,1.2l0,0c0,0.1,0.1,0.1,0.1,0.2l0,0c0.2,0.2,0.3,0.5,0.5,0.8l0,0
	c0.1,0.1,0.1,0.2,0.1,0.3l0,0c0.1,0.2,0.2,0.5,0.3,0.7l0,0c0.1,0.3,0.2,0.5,0.3,0.8l0,0c0,0.1,0,0.1,0,0.2l0,0
	c0.1,0.2,0.1,0.5,0.2,0.7l0,0c0.1,0.3,0.1,0.6,0.1,0.9v0.1c0,0.3,0.1,0.6,0.1,1v0.1c0,0.3,0,0.7,0.1,1.1v0.1c0,0.4,0,0.8,0,1.3
	c0,1.1-0.1,2.3-0.1,3.7c0,0.6-0.1,1.2-0.1,1.9c0,0.1,0,0.1,0,0.2s0,0.2,0,0.3c0,0.3,0,0.5,0,0.8c0,0.2,0,0.4,0,0.7
	c0,0.3,0,0.6,0,0.9c0,0.2,0,0.4,0,0.6c0,0.3,0,0.7,0,1c0,0.2,0,0.3,0,0.5c0,0.4,0,0.8,0.1,1.2c0,0.1,0,0.2,0,0.3
	c0,0.5,0.1,1,0.1,1.5v0.1c0.8,9.3,3,20.9,5.4,32.6c0,0,0,0,0,0.1c0.3,1.3,0.5,2.5,0.8,3.8c0.6,3.1,1.3,6.2,1.9,9.3
	c0.1,0.4,0.2,0.8,0.2,1.2c0.2,1.2,0.5,2.3,0.7,3.5c0,0.2,0.1,0.4,0.1,0.6c0.2,1,0.4,2,0.6,3c0,0.2,0.1,0.4,0.1,0.6
	c0.4,2.3,0.8,4.6,1.2,6.7l0,0c0.3,2,0.6,3.9,0.9,5.7c0,0.1,0,0.2,0,0.3c0.1,0.7,0.2,1.5,0.3,2.2c0,0.2,0,0.4,0.1,0.6
	c0.1,0.8,0.2,1.6,0.2,2.3l0,0c0.1,1.6,0.2,3.1,0.3,4.6c0,0.7,0,1.4,0,2l0,0l0,0c0,0.6,0,1.3-0.1,1.8c-0.5,0.1-0.9,0.4-1.2,0.7l0,0
	c0,0,0,0-0.1,0.1c0,0,0,0-0.1,0.1l-0.1,0.1c-0.1,0.1-0.1,0.1-0.1,0.2c-0.1,0.1-0.2,0.3-0.3,0.4l0,0l0,0c-0.1,0.1-0.1,0.3-0.2,0.5
	v0.1c0,0.1,0,0.2,0,0.2c0,0.2,0,0.3,0,0.5c0,0.1,0,0.1,0,0.2v0.1c0,0.2,0,0.3,0.1,0.5c0,0.2,0.1,0.4,0.1,0.6c0,0.1,0.1,0.2,0.1,0.3
	c0,0,0,0,0,0.1s0.1,0.2,0.1,0.3v0.1c0,0.1,0.1,0.2,0.2,0.3c0.2,0.4,0.4,0.7,0.7,1.1l0.1,0.1l0,0c0.1,0.1,0.2,0.3,0.3,0.4
	c0.2,0.2,0.3,0.3,0.5,0.5l0,0l0,0l0,0l-0.1,3c-0.5,0-3.7,0.4-3.8,0.5c-0.3,0.3,0,1.9,0.8,3.4c0.6,1.2,3.8,7.2,7.5,7.2l0,0h0.5h17.9
	l0,0h17.9h0.5l0,0c3.7,0,6.8-6,7.5-7.2c0.8-1.5,1.1-3.1,0.8-3.4c-0.1-0.1-3.3-0.5-3.8-0.5l-0.1-3l0,0l0,0l0,0
	c0.2-0.2,0.4-0.3,0.5-0.5c0.1-0.1,0.2-0.3,0.3-0.4l0,0l0.1-0.1c0.3-0.4,0.5-0.7,0.7-1.1c0.1-0.1,0.1-0.2,0.2-0.3v-0.1
	c0-0.1,0.1-0.2,0.1-0.3c0,0,0,0,0-0.1s0.1-0.2,0.1-0.3c0.1-0.2,0.1-0.4,0.1-0.6s0-0.3,0.1-0.5v-0.1c0-0.1,0-0.1,0-0.2
	c0-0.2,0-0.3,0-0.5c0-0.1,0-0.2,0-0.2v-0.1c0-0.2-0.1-0.3-0.2-0.5l0,0l0,0c-0.1-0.2-0.2-0.3-0.3-0.4c0-0.1-0.1-0.1-0.1-0.2l-0.1-0.1
	c0,0,0,0-0.1-0.1c0,0,0,0-0.1-0.1l0,0c-0.3-0.3-0.7-0.5-1.2-0.7c0-0.6-0.1-1.2-0.1-1.8l0,0l0,0c0-0.6,0-1.3,0-2
	c0-1.4,0.1-2.9,0.3-4.6l0,0c0.1-0.8,0.1-1.5,0.2-2.3c0-0.2,0-0.4,0.1-0.6c0.1-0.7,0.2-1.4,0.3-2.2c0-0.1,0-0.2,0-0.3
	c0.2-1.8,0.5-3.8,0.9-5.7l0,0c0.4-2.2,0.7-4.4,1.2-6.7c0-0.2,0.1-0.4,0.1-0.6c0.2-1,0.4-2,0.6-3c0-0.2,0.1-0.4,0.1-0.6
	c0.2-1.2,0.4-2.3,0.7-3.5c0.1-0.4,0.2-0.8,0.2-1.2c0.6-3.1,1.2-6.2,1.9-9.3c0.3-1.3,0.5-2.5,0.8-3.8c0,0,0,0,0-0.1
	c2.3-11.7,4.6-23.3,5.4-32.6v-0.1c0-0.5,0.1-1,0.1-1.5c0-0.1,0-0.2,0-0.3c0-0.4,0.1-0.8,0.1-1.2c0-0.2,0-0.3,0-0.5c0-0.3,0-0.7,0-1
	c0-0.2,0-0.4,0-0.6c0-0.3,0-0.6,0-0.9c0-0.2,0-0.4,0-0.7c0-0.3,0-0.5,0-0.8c0-0.1,0-0.2,0-0.3c0-0.1,0-0.1,0-0.2
	c0-0.7,0-1.3-0.1-1.9c-0.1-1.4-0.1-2.6-0.1-3.7c0-0.4,0-0.9,0-1.3v-0.1c0-0.4,0-0.8,0.1-1.1v-0.1c0-0.3,0.1-0.7,0.1-1v-0.1
	c0-0.3,0.1-0.6,0.1-0.9l0,0c0-0.3,0.1-0.5,0.2-0.7l0,0c0-0.1,0-0.1,0-0.2l0,0c0.1-0.3,0.2-0.6,0.3-0.8l0,0c0.1-0.3,0.2-0.5,0.3-0.7
	l0,0c0-0.1,0.1-0.2,0.1-0.3l0,0c0.2-0.3,0.3-0.6,0.5-0.8l0,0c0-0.1,0.1-0.1,0.1-0.2l0,0c0.3-0.4,0.7-0.8,1.1-1.2
	c0.3-0.3,0.5-0.5,0.8-0.8c0.1-0.1,0.1-0.1,0.2-0.2c0.6-0.6,1.1-1.2,1.7-1.8c0.2-0.2,0.4-0.5,0.7-0.7c0.4-0.4,0.7-0.8,1.1-1.3
	c0.2-0.3,0.5-0.6,0.7-0.8c0.3-0.4,0.6-0.7,0.9-1.1c0.2-0.3,0.5-0.6,0.7-0.9s0.5-0.6,0.7-0.9l0.1-0.1c1.1-1.4,2.2-2.7,3.1-4.1
	c0.2-0.2,0.3-0.4,0.4-0.6c0.3-0.5,0.7-0.9,1-1.3c0.2-0.2,0.3-0.5,0.5-0.7c0.3-0.4,0.6-0.8,0.8-1.2c0.2-0.2,0.3-0.5,0.5-0.7
	c0.3-0.4,0.5-0.8,0.7-1.2c0.1-0.2,0.3-0.5,0.4-0.7c0.2-0.4,0.5-0.8,0.7-1.2c0.1-0.2,0.2-0.4,0.4-0.6c0.3-0.5,0.6-1,0.8-1.5
	c0-0.1,0.1-0.2,0.1-0.2c0.3-0.6,0.6-1.1,0.9-1.7c0.1-0.2,0.2-0.3,0.2-0.5c0.2-0.4,0.4-0.8,0.6-1.2c0.1-0.2,0.2-0.4,0.3-0.6
	c0.2-0.3,0.3-0.7,0.5-1c0.1-0.2,0.2-0.4,0.3-0.6c0.1-0.3,0.3-0.7,0.4-1c0.1-0.2,0.2-0.4,0.2-0.6c0.1-0.3,0.3-0.7,0.4-1
	c0.1-0.2,0.1-0.4,0.2-0.5c0.1-0.4,0.3-0.8,0.4-1.2c0-0.1,0.1-0.2,0.1-0.3c0.2-0.5,0.3-1,0.4-1.5c0-0.1,0.1-0.2,0.1-0.3
	c0.1-0.4,0.2-0.7,0.3-1.1c0-0.2,0.1-0.3,0.1-0.5c0.1-0.3,0.1-0.6,0.2-0.9c0-0.2,0.1-0.4,0.1-0.5c0.1-0.3,0.1-0.6,0.2-0.9
	c0-0.2,0.1-0.4,0.1-0.5c0-0.3,0.1-0.6,0.1-0.9c0-0.2,0.1-0.3,0.1-0.5c0-0.3,0.1-0.6,0.1-1c0-0.1,0-0.2,0-0.4c0-0.4,0.1-0.9,0.1-1.3
	c0-0.1,0-0.1,0-0.2c0-0.4,0.1-0.7,0.1-1.1c0-0.1,0-0.3,0-0.4c0-0.3,0-0.6,0-0.8c0-0.2,0-0.3,0-0.5c0-0.3,0-0.5,0-0.8
	c0-0.2,0-0.3,0-0.5c0-0.3,0-0.5,0-0.8c0-0.2,0-0.3,0-0.5c0-0.1,0-0.1,0-0.2v-0.1c0-1.4,0-2.8-0.1-4.1l0,0c0-0.9,0-1.7-0.1-2.6
	c0-0.1,0-0.2,0-0.3c0-0.9,0-1.8,0-2.8c0-0.2,0-0.3,0-0.6c0-0.2,0-0.5,0-0.7c0-0.3,0-0.6,0-0.9c0-0.7,0-1.5,0-2.4c0-0.5,0-1,0-1.5
	c0-0.2,0-0.4,0-0.6c0-0.4,0-0.7,0-1.1c0-0.2,0-0.4,0-0.7c0-0.4,0-0.9,0-1.3c0-0.2,0-0.5,0-0.7c0-0.4,0-0.9,0-1.3c0-0.3,0-0.5,0-0.8
	c0-0.5,0-1,0-1.6c0-0.3,0-0.5,0-0.8c0-0.5,0-1.1,0-1.6c0-0.3,0-0.6,0-1c0-0.5,0-1.1,0-1.6c0-0.3,0-0.6,0-1c0-0.9,0-1.8,0-2.7
	c0-0.9,0-1.8,0-2.7c0-1.1,0-2.2,0-3.4c0-0.3,0-0.7,0-1c0-0.8,0-1.7,0-2.6c0-0.4,0-0.7,0-1.1c0-1.1,0-2.2,0-3.3c0-0.1,0-0.2,0-0.4
	c0-1.2,0-2.4,0-3.6c0-0.6,0-1.2,0-1.8c0-0.7,0-1.3,0-2c0-0.6,0-1.3,0-1.9c0-0.9,0-1.9,0-2.9c0-0.3,0-0.6,0-0.9c0-1.3,0-2.6,0-4
	c0-0.5,0-1,0-1.5c0-0.9,0-1.8,0-2.7c0-0.6,0-1.2,0-1.7c0-0.9,0-1.9,0-2.9c0-0.5,0-0.9,0-1.4c0-0.9,0-1.8,0-2.7c0-1.4,0-2.7,0-4.1
	c0-0.4,0-0.8,0-1.2c0-0.9,0-1.7,0-2.6c0-0.7,0-1.4,0-2.1c0-0.7,0-1.3,0-2c0-1.1,0-2.3,0-3.4c0-1.1,0-2.2,0-3.3c0-0.5,0-1,0-1.4
	c0-0.9,0-1.7,0-2.6c0-0.7,0-1.5,0-2.2s0-1.3,0-2c0-1.4,0-2.9,0-4.3c0-6.3,0-12.5,0-18.5c0,0,0,0,0-0.1c0-6,0-11.8,0-17.3
	c0-0.1,0-0.3,0-0.4c0-1,0-2,0-3v-0.1c0-1.1,0-2.1,0-3.2l0,0c0-4.2,0-8.2,0-12v-0.1c0-0.8,0-1.6,0-2.4c0-0.2,0-0.5,0-0.7
	c0-0.6,0-1.2,0-1.8c0-0.2,0-0.5,0-0.7c0-0.7,0-1.3,0-2c0-0.1,0-0.3,0-0.4c0-0.7,0-1.4,0-2.1c0-0.1,0-0.2,0-0.3c0-1.5,0-3,0-4.3
	c0-0.1,0-0.2,0-0.2c0-0.5,0-1.1,0-1.6c0-0.2,0-0.4,0-0.7c0-0.4,0-0.7,0-1.1c0-0.2,0-0.4,0-0.7c0-0.4,0-0.7,0-1c0-0.2,0-0.3,0-0.5
	c0-0.4,0-0.7,0-1c0-0.1,0-0.3,0-0.4c0-0.3,0-0.6,0-0.9c0-0.1,0-0.3,0-0.4c0-0.4,0-0.8,0-1.1c0-0.1,0-0.3,0-0.4s0-0.1,0-0.2
	s0-0.2,0-0.3c0-0.1,0-0.2,0-0.3c0-0.1,0-0.2,0-0.3c0-0.1,0-0.2,0-0.3c0-0.1,0-0.2,0-0.4c0-0.2,0-0.4,0.1-0.7c0-0.1,0-0.1,0-0.2
	c0-0.3,0.1-0.6,0.1-0.9v-0.1c0-0.5,0.1-1,0.1-1.5c0-0.1,0-0.1,0-0.2s0-0.2,0-0.4c0-0.1,0-0.3,0-0.4s0-0.2,0-0.3v-0.1v-0.1
	c0-0.1,0-0.2,0-0.3C217.2,75.4,207.5,69.6,207.5,69.6z"/>
<rect x="0.2" y="0.7" class="st1" width="302.7" height="503.4"/>
<g>
	<g>
		<path class="st2" d="M127.9,212.8V173h20.4v6.7h-12.9v9.2h9.9v6.7h-9.9V206h13.5v6.7h-21C127.9,212.7,127.9,212.8,127.9,212.8z"/>
		<path class="st2" d="M127.9,258.6v-39.8h20.4v6.7h-12.9v9.2h9.9v6.7h-9.9v10.5h13.5v6.7H127.9z"/>
		<g>
			<g>
				<path class="st2" d="M98.8,166.9V127h7.4v39.8L98.8,166.9L98.8,166.9z"/>
				<path class="st2" d="M112.7,166.9V127h8.1l10.4,23.6h0.1V127h6.8v39.8H131l-11.4-25.7h-0.1v25.7L112.7,166.9L112.7,166.9z"/>
				<path class="st2" d="M144.1,127h10.4c8.5,0,13.3,3.8,13.6,13.8V153c-0.3,10-5.1,13.8-13.6,13.8h-10.4V127z M151.6,160.1h2.6
					c4.1,0,6.5-2,6.5-7.9v-10.5c0-5.6-1.8-7.9-6.5-7.9h-2.6V160.1z"/>
				<path class="st2" d="M173,166.9V127h20.4v6.7h-12.9v9.2h9.9v6.7h-9.9v10.5H194v6.7h-21V166.9z"/>
			</g>
			<path class="st2" d="M98.8,212.8V173h10.7c9.2,0,13.6,4.4,13.6,11.9s-4.5,11.9-13.6,11.9h-3.3v16L98.8,212.8L98.8,212.8z
				 M106.2,190.5h4c3.7,0,5.5-1.9,5.5-5.6c0-3.8-1.8-5.6-5.5-5.6h-4V190.5z"/>
			<path class="st2" d="M153.7,212.7v-39.8h8.1l10.4,23.6h0.1v-23.6h6.8v39.8H172L160.6,187h-0.1v25.7H153.7z"/>
			<path class="st2" d="M98.8,218.8h10.4c8.5,0,13.3,3.8,13.6,13.8v12.2c-0.3,10-5.1,13.8-13.6,13.8H98.8V218.8z M106.2,251.9h2.6
				c4.1,0,6.5-2,6.5-7.9v-10.5c0-5.6-1.8-7.9-6.5-7.9h-2.6V251.9z"/>
			<path class="st2" d="M153.7,258.5v-39.8h8.1l10.4,23.6h0.1v-23.6h6.8v39.8H172l-11.4-25.7h-0.1v25.7H153.7z"/>
			<path class="st2" d="M208.3,218.8v6.7h-8.7v33.1h-7.4v-33.1h-8.7v-6.7H208.3z"/>
		</g>
	</g>
	<g>
		<polygon class="st3" points="222.1,45.7 222.1,50.3 233.4,50.3 233.4,418.4 233.4,453.5 192.3,453.5 192.3,458.1 238,458.1 
			238,418.4 238,45.7 		"/>
		<polygon class="st3" points="44.8,418.4 44.8,50.3 84.8,50.3 84.8,45.7 40.2,45.7 40.2,458.1 114.5,458.1 114.5,453.5 44.8,453.5 
					"/>
	</g>
	<g>
		<path class="st3" d="M78.8,427.5v10.1H55.5V428c0-4.8,2.7-7.4,6.7-7.4c2.7,0,4.1,1.8,4.6,2.6c0.6-0.9,1.8-2.9,5.1-2.9
			C76.4,420.2,78.8,423.3,78.8,427.5z M60.6,428.3v3.6h3.8v-3.6c0-1.6-1-2.1-1.9-2.1S60.6,426.8,60.6,428.3z M69.6,428v3.9h4.1V428
			c0-1.6-1.1-2.1-2.1-2.1S69.6,426.5,69.6,428z"/>
		<path class="st3" d="M78.8,403.7l-8.7,4.1v1.9h8.7v5.7H55.5v-9.2c0-5.2,3.7-8,7.5-8c3.2,0,5.2,2,6.1,3.8l9.7-5
			C78.8,397,78.8,403.7,78.8,403.7z M60.6,406.5v3.2h4.7v-3.2c0-1.6-1.1-2.5-2.4-2.5C61.8,404,60.6,404.9,60.6,406.5z"/>
		<path class="st3" d="M78.8,393.3H55.5v-15.8h5.1v10.1h3.9V379h5.1v8.6h4.1v-10.1h5.1C78.8,377.5,78.8,393.3,78.8,393.3z"/>
		<path class="st3" d="M78.8,351.6v4.7l-11.5,3.8l11.5,3.8v4.6l-23.3,6.4v-6l12.3-3l-12.3-3.8V358l12.3-3.8l-12.3-3v-6L78.8,351.6z"
			/>
		<path class="st3" d="M78.8,342.1H55.5v-15.8h5.1v10.1h3.9v-8.6h5.1v8.6h4.1v-10.1h5.1C78.8,326.3,78.8,342.1,78.8,342.1z"/>
		<path class="st3" d="M78.8,309.8l-8.7,4.1v1.9h8.7v5.7H55.5v-9.2c0-5.2,3.7-8,7.5-8c3.2,0,5.2,2,6.1,3.8l9.7-5
			C78.8,303.1,78.8,309.8,78.8,309.8z M60.6,312.6v3.2h4.7v-3.2c0-1.6-1.1-2.5-2.4-2.5C61.8,310.1,60.6,311,60.6,312.6z"/>
		<path class="st3" d="M79,293.4c0,3.6-0.7,6.5-3.1,8.8l-3.7-3.7c1.2-1.2,1.6-3.3,1.6-5.2c0-2.3-0.8-3.3-2.1-3.3
			c-0.6,0-1,0.1-1.4,0.5c-0.3,0.3-0.5,0.8-0.6,1.5l-0.4,2.8c-0.3,2.1-1,3.6-2.1,4.7s-2.7,1.6-4.7,1.6c-4.3,0-7.4-3.2-7.4-8.5
			c0-3.3,0.8-5.9,2.8-7.9l3.6,3.6c-1.5,1.5-1.4,3.4-1.4,4.4c0,2,1.1,2.8,2.2,2.8c0.3,0,0.7-0.1,1.1-0.5c0.3-0.3,0.6-0.8,0.7-1.6
			l0.4-2.8c0.3-2.1,0.9-3.6,1.9-4.6c1.2-1.2,2.9-1.7,5.1-1.7C76.4,284.4,79,288.5,79,293.4z"/>
		<path class="st3" d="M78.8,258.7l-3.5,1.1v7.2l3.5,1.1v6l-23.3-8.5v-4.4l23.3-8.5V258.7z M64.3,263.2l6.2,2.1v-4.1L64.3,263.2z"/>
		<path class="st3" d="M79,243.5c0,3.6-0.7,6.5-3.1,8.8l-3.7-3.7c1.2-1.2,1.6-3.3,1.6-5.2c0-2.3-0.8-3.3-2.1-3.3
			c-0.6,0-1,0.1-1.4,0.5c-0.3,0.3-0.5,0.8-0.6,1.5l-0.4,2.8c-0.3,2.1-1,3.6-2.1,4.7c-1.1,1.1-2.7,1.6-4.7,1.6
			c-4.3,0-7.4-3.2-7.4-8.5c0-3.3,0.8-5.9,2.8-7.9l3.6,3.6c-1.5,1.5-1.4,3.4-1.4,4.4c0,2,1.1,2.8,2.2,2.8c0.3,0,0.7-0.1,1.1-0.5
			c0.3-0.3,0.6-0.8,0.7-1.6l0.4-2.8c0.3-2.1,0.9-3.6,1.9-4.6c1.2-1.2,2.9-1.7,5.1-1.7C76.4,234.5,79,238.6,79,243.5z"/>
		<path class="st3" d="M79,224c0,3.6-0.7,6.5-3.1,8.8l-3.7-3.7c1.2-1.2,1.6-3.3,1.6-5.2c0-2.3-0.8-3.3-2.1-3.3c-0.6,0-1,0.1-1.4,0.5
			c-0.3,0.3-0.5,0.8-0.6,1.5l-0.4,2.8c-0.3,2.1-1,3.6-2.1,4.7c-1.1,1.1-2.7,1.6-4.7,1.6c-4.3,0-7.4-3.2-7.4-8.5
			c0-3.3,0.8-5.9,2.8-7.9l3.6,3.6c-1.5,1.5-1.4,3.4-1.4,4.4c0,2,1.1,2.8,2.2,2.8c0.3,0,0.7-0.1,1.1-0.5c0.3-0.3,0.6-0.8,0.7-1.6
			l0.4-2.8c0.3-2.1,0.9-3.6,1.9-4.6c1.2-1.2,2.9-1.7,5.1-1.7C76.4,215,79,219.1,79,224z"/>
		<path class="st3" d="M76.4,196.4c1.7,1.7,2.6,3.7,2.6,6.5s-0.9,4.8-2.6,6.5c-2.5,2.5-5.7,2.4-9.2,2.4s-6.8,0.1-9.2-2.4
			c-1.7-1.7-2.6-3.7-2.6-6.5s0.9-4.8,2.6-6.5c2.5-2.5,5.7-2.4,9.2-2.4C70.6,194,73.9,193.9,76.4,196.4z M61.4,200.6
			c-0.6,0.4-1,1.2-1,2.3c0,1,0.5,1.9,1,2.3c0.7,0.5,1.5,0.9,5.7,0.9c4.3,0,5-0.3,5.7-0.9c0.6-0.4,1-1.2,1-2.3c0-1-0.5-1.9-1-2.3
			c-0.7-0.5-1.4-0.9-5.7-0.9C62.9,199.8,62.1,200.1,61.4,200.6z"/>
		<path class="st3" d="M79,181.8c0,2.7-0.9,4.8-2.6,6.5c-2.5,2.5-5.7,2.4-9.2,2.4s-6.8,0.1-9.2-2.4c-1.7-1.7-2.6-3.8-2.6-6.5
			c0-4.4,2.5-8,7.6-8.8v5.8c-1.3,0.4-2.5,1.1-2.5,3c0,1,0.4,1.8,1,2.3c0.7,0.5,1.5,0.9,5.8,0.9s5.1-0.4,5.8-0.9c0.6-0.4,1-1.2,1-2.3
			c0-1.9-1.2-2.6-2.5-3V173C76.5,173.8,79,177.4,79,181.8z"/>
		<path class="st3" d="M78.8,169.2H55.5v-5.7h23.3V169.2z"/>
		<path class="st3" d="M78.8,144.9l-3.5,1.1v7.2l3.5,1.1v6l-23.3-8.5v-4.4l23.3-8.5V144.9z M64.3,149.4l6.2,2.1v-4.1L64.3,149.4z"/>
		<path class="st3" d="M60.6,128.9h18.2v5.7H60.6v5.7h-5.1v-17.2h5.1V128.9z"/>
		<path class="st3" d="M78.8,120H55.5v-5.7h23.3V120z"/>
		<path class="st3" d="M76.4,94.8c1.7,1.7,2.6,3.7,2.6,6.5s-0.9,4.8-2.6,6.5c-2.5,2.5-5.7,2.4-9.2,2.4s-6.8,0.1-9.2-2.4
			c-1.7-1.7-2.6-3.7-2.6-6.5s0.9-4.8,2.6-6.5c2.5-2.5,5.7-2.4,9.2-2.4C70.6,92.4,73.9,92.3,76.4,94.8z M61.4,99
			c-0.6,0.4-1,1.2-1,2.3c0,1,0.5,1.9,1,2.3c0.7,0.5,1.5,0.9,5.7,0.9c4.3,0,5-0.3,5.7-0.9c0.6-0.4,1-1.2,1-2.3c0-1-0.5-1.9-1-2.3
			c-0.7-0.5-1.4-0.9-5.7-0.9C62.9,98.1,62.1,98.5,61.4,99z"/>
		<path class="st3" d="M78.8,75.1l-11.7,7.5h11.7v5.7H55.5v-5l11.7-7.5H55.5v-5.7h23.3V75.1z"/>
	</g>
	<g>
		<path class="st3" d="M96.3,56.1c-1.9,0-3.3-0.6-4.4-1.8c-1.7-1.7-1.6-3.9-1.6-6.3c0-2.4-0.1-4.6,1.6-6.3c1.2-1.2,2.6-1.8,4.4-1.8
			c3,0,5.5,1.7,6,5.2h-4c-0.2-0.9-0.7-1.7-2-1.7c-0.7,0-1.3,0.3-1.5,0.7c-0.4,0.5-0.6,1-0.6,3.9s0.2,3.5,0.6,3.9
			c0.3,0.4,0.8,0.7,1.5,0.7c1.3,0,1.8-0.8,2-1.7h4C101.8,54.5,99.3,56.1,96.3,56.1z"/>
		<path class="st3" d="M106.6,56V40h10.8v3.5h-6.9v2.7h5.9v3.5h-5.9v2.8h6.9V56H106.6z"/>
		<path class="st3" d="M130.6,56l-2.8-5.9h-1.3V56h-3.9V40h6.3c3.5,0,5.4,2.5,5.4,5.1c0,2.2-1.3,3.5-2.6,4.2l3.5,6.7H130.6z
			 M128.6,43.6h-2.2v3.2h2.2c1.1,0,1.7-0.8,1.7-1.6S129.7,43.6,128.6,43.6z"/>
		<path class="st3" d="M146.3,43.6V56h-3.9V43.6h-3.9v-3.5h11.8v3.5H146.3z"/>
		<path class="st3" d="M154.7,56V40h3.9v16H154.7z"/>
		<path class="st3" d="M168,43.6v2.8h5.9v3.5H168V56h-3.9V40h10.8v3.5L168,43.6L168,43.6z"/>
		<path class="st3" d="M179.7,56V40h3.9v16H179.7z"/>
		<path class="st3" d="M189.1,56V40h10.8v3.5H193v2.7h5.9v3.5H193v2.8h6.9V56H189.1z"/>
		<path class="st3" d="M215.1,54.4c-1.1,1.1-2.6,1.6-4.3,1.6h-5.9V40h5.9c1.7,0,3.2,0.5,4.3,1.6c1.9,1.9,1.7,3.9,1.7,6.4
			S217,52.6,215.1,54.4z M212.5,44.5c-0.4-0.5-0.9-0.9-1.9-0.9h-1.7v9h1.7c1,0,1.5-0.4,1.9-0.9c0.3-0.4,0.4-0.9,0.4-3.6
			S212.8,44.9,212.5,44.5z"/>
	</g>
	<g>
		<path class="st2" d="M107.6,290.7c-2.5,0-4.7-1-6.4-2.7c-2.4-2.5-2.4-5.3-2.4-10.1c0-4.9,0-7.6,2.4-10.1c1.7-1.7,3.9-2.7,6.4-2.7
			c4.5,0,7.9,2.7,8.7,7.8h-3.8c-0.6-2.5-2.2-4.3-4.9-4.3c-1.4,0-2.7,0.6-3.6,1.5c-1.2,1.3-1.5,2.8-1.5,7.9s0.3,6.5,1.5,7.9
			c0.9,1,2.2,1.5,3.6,1.5c2.7,0,4.4-1.8,5-4.3h3.7C115.5,288,112,290.7,107.6,290.7z"/>
		<path class="st2" d="M133.1,290.5l-5.2-10.6h-4.6v10.6h-3.7v-25.2h9.5c4.6,0,7.6,3.1,7.6,7.4c0,3.6-2.1,5.9-4.9,6.7l5.6,11.2h-4.3
			L133.1,290.5L133.1,290.5z M128.8,268.7h-5.5v7.9h5.5c2.5,0,4.2-1.5,4.2-3.9C132.9,270.2,131.2,268.7,128.8,268.7z"/>
		<path class="st2" d="M157,290.5l-1.7-5.1h-9.7l-1.7,5.1h-4l9-25.2h3l9,25.2H157z M150.5,271l-3.8,11.2h7.5L150.5,271z"/>
		<path class="st2" d="M167.6,268.7v7.7h10.2v3.4h-10.2v10.7h-3.7v-25.2h15.6v3.4H167.6z"/>
		<path class="st2" d="M192.8,268.7v21.8h-3.7v-21.8h-6.7v-3.4h17.2v3.4H192.8z"/>
	</g>
	<g>
		<g>
			<path class="st3" d="M248.8,448.2h2.9c0.6,0,1.1,0.2,1.5,0.5c0.5,0.4,0.7,0.9,0.7,1.6c0,1-0.5,1.7-1.4,2l1.7,3.3h-1.3l-1.5-3.1
				H250v3.1h-1.1L248.8,448.2L248.8,448.2z M250,451.5h1.7c0.4,0,0.7-0.1,0.9-0.4c0.2-0.2,0.3-0.5,0.3-0.8c0-0.4-0.1-0.7-0.4-0.8
				c-0.2-0.2-0.5-0.2-0.8-0.2H250V451.5z"/>
		</g>
		<path class="st3" d="M251.2,446.6c3,0,5.4,2.4,5.4,5.4s-2.4,5.4-5.4,5.4s-5.4-2.4-5.4-5.4C245.8,449,248.2,446.6,251.2,446.6
			 M251.2,445.8c-3.4,0-6.2,2.8-6.2,6.2c0,3.4,2.8,6.2,6.2,6.2s6.2-2.8,6.2-6.2C257.4,448.6,254.6,445.8,251.2,445.8L251.2,445.8z"
			/>
	</g>
</g>
</svg>
